<svg width="72" height="73" viewBox="0 0 72 73" fill="none" xmlns="http://www.w3.org/2000/svg">
<circle cx="36" cy="36.5" r="36" fill="#1B3F58"/>
<mask id="mask0_51_1975" style="mask-type:alpha" maskUnits="userSpaceOnUse" x="20" y="20" width="32" height="33">
<rect x="20" y="20.5" width="32" height="32" fill="#D9D9D9"/>
</mask>
<g mask="url(#mask0_51_1975)">
<path d="M36.2 42.0333C36.9333 42.0333 37.5611 41.8611 38.0833 41.5167C38.6055 41.1722 38.8666 40.6333 38.8666 39.9C38.8666 39.2556 38.5944 38.7333 38.05 38.3333C37.5055 37.9333 36.5333 37.4778 35.1333 36.9667C33.8222 36.5 32.8611 35.9444 32.25 35.3C31.6389 34.6556 31.3333 33.8111 31.3333 32.7667C31.3333 31.8556 31.65 31.0278 32.2833 30.2833C32.9166 29.5389 33.7778 29.0556 34.8666 28.8333V28.3333C34.8666 28.0222 34.9833 27.75 35.2166 27.5167C35.45 27.2833 35.7222 27.1667 36.0333 27.1667C36.3444 27.1667 36.6166 27.2833 36.85 27.5167C37.0833 27.75 37.2 28.0222 37.2 28.3333V28.8333C37.8444 28.8778 38.4389 29.0944 38.9833 29.4833C39.5278 29.8722 39.9666 30.3444 40.3 30.9C40.4555 31.1444 40.4666 31.4056 40.3333 31.6833C40.2 31.9611 39.9778 32.1556 39.6666 32.2667C39.3778 32.3778 39.0889 32.3889 38.8 32.3C38.5111 32.2111 38.2778 32.0444 38.1 31.8C37.8778 31.5333 37.6 31.3167 37.2666 31.15C36.9333 30.9833 36.5333 30.9 36.0666 30.9C35.2889 30.9 34.6944 31.0667 34.2833 31.4C33.8722 31.7333 33.6666 32.1889 33.6666 32.7667C33.6666 33.3444 33.9222 33.8 34.4333 34.1333C34.9444 34.4667 35.8666 34.8556 37.2 35.3C38.8 35.8778 39.8666 36.5556 40.4 37.3333C40.9333 38.1111 41.2 38.9667 41.2 39.9C41.2 40.5444 41.0889 41.1111 40.8666 41.6C40.6444 42.0889 40.35 42.5056 39.9833 42.85C39.6166 43.1944 39.1889 43.4722 38.7 43.6833C38.2111 43.8944 37.6889 44.0556 37.1333 44.1667V44.6667C37.1333 44.9778 37.0166 45.25 36.7833 45.4833C36.55 45.7167 36.2778 45.8333 35.9666 45.8333C35.6555 45.8333 35.3833 45.7167 35.15 45.4833C34.9166 45.25 34.8 44.9778 34.8 44.6667V44.1C33.9555 43.9222 33.2333 43.5889 32.6333 43.1C32.0333 42.6111 31.5555 41.9889 31.2 41.2333C31.0666 40.9222 31.0722 40.6222 31.2166 40.3333C31.3611 40.0444 31.5889 39.8444 31.9 39.7333C32.1889 39.6222 32.4778 39.6278 32.7666 39.75C33.0555 39.8722 33.2778 40.0667 33.4333 40.3333C33.7444 40.9111 34.1389 41.3389 34.6166 41.6167C35.0944 41.8944 35.6222 42.0333 36.2 42.0333ZM36 51.1667C33.5111 51.1667 31.2222 50.6 29.1333 49.4667C27.0444 48.3333 25.3333 46.8222 24 44.9333V47.1667C24 47.5444 23.8722 47.8611 23.6166 48.1167C23.3611 48.3722 23.0444 48.5 22.6666 48.5C22.2889 48.5 21.9722 48.3722 21.7166 48.1167C21.4611 47.8611 21.3333 47.5444 21.3333 47.1667V41.8333C21.3333 41.4556 21.4611 41.1389 21.7166 40.8833C21.9722 40.6278 22.2889 40.5 22.6666 40.5H28C28.3778 40.5 28.6944 40.6278 28.95 40.8833C29.2055 41.1389 29.3333 41.4556 29.3333 41.8333C29.3333 42.2111 29.2055 42.5278 28.95 42.7833C28.6944 43.0389 28.3778 43.1667 28 43.1667H26.0333C27.1 44.7667 28.5055 46.0556 30.25 47.0333C31.9944 48.0111 33.9111 48.5 36 48.5C39.1333 48.5 41.8278 47.4556 44.0833 45.3667C46.3389 43.2778 47.6222 40.7111 47.9333 37.6667C47.9778 37.3111 48.1333 37.0278 48.4 36.8167C48.6666 36.6056 48.9778 36.5 49.3333 36.5C49.7111 36.5 50.0333 36.6167 50.3 36.85C50.5666 37.0833 50.6778 37.3667 50.6333 37.7C50.4778 39.5889 49.9889 41.35 49.1666 42.9833C48.3444 44.6167 47.2778 46.0389 45.9666 47.25C44.6555 48.4611 43.15 49.4167 41.45 50.1167C39.75 50.8167 37.9333 51.1667 36 51.1667ZM36 24.5C32.8666 24.5 30.1722 25.5444 27.9166 27.6333C25.6611 29.7222 24.3778 32.2889 24.0666 35.3333C24.0222 35.6889 23.8666 35.9722 23.6 36.1833C23.3333 36.3944 23.0222 36.5 22.6666 36.5C22.2889 36.5 21.9666 36.3833 21.7 36.15C21.4333 35.9167 21.3222 35.6333 21.3666 35.3C21.5222 33.4111 22.0111 31.65 22.8333 30.0167C23.6555 28.3833 24.7222 26.9611 26.0333 25.75C27.3444 24.5389 28.85 23.5833 30.55 22.8833C32.25 22.1833 34.0666 21.8333 36 21.8333C38.4889 21.8333 40.7778 22.4 42.8666 23.5333C44.9555 24.6667 46.6666 26.1778 48 28.0667V25.8333C48 25.4556 48.1278 25.1389 48.3833 24.8833C48.6389 24.6278 48.9555 24.5 49.3333 24.5C49.7111 24.5 50.0278 24.6278 50.2833 24.8833C50.5389 25.1389 50.6666 25.4556 50.6666 25.8333V31.1667C50.6666 31.5444 50.5389 31.8611 50.2833 32.1167C50.0278 32.3722 49.7111 32.5 49.3333 32.5H44C43.6222 32.5 43.3055 32.3722 43.05 32.1167C42.7944 31.8611 42.6666 31.5444 42.6666 31.1667C42.6666 30.7889 42.7944 30.4722 43.05 30.2167C43.3055 29.9611 43.6222 29.8333 44 29.8333H45.9666C44.9 28.2333 43.4944 26.9444 41.75 25.9667C40.0055 24.9889 38.0889 24.5 36 24.5Z" fill="white"/>
</g>
</svg>
