<svg width="48" height="49" viewBox="0 0 48 49" fill="none" xmlns="http://www.w3.org/2000/svg">
<circle cx="24" cy="24.5" r="24" fill="#F09021"/>
<path d="M23 17H16C15.4696 17 14.9609 17.2107 14.5858 17.5858C14.2107 17.9609 14 18.4696 14 19V33C14 33.5304 14.2107 34.0391 14.5858 34.4142C14.9609 34.7893 15.4696 35 16 35H30C30.5304 35 31.0391 34.7893 31.4142 34.4142C31.7893 34.0391 32 33.5304 32 33V26" stroke="white" stroke-width="2" stroke-linecap="round" stroke-linejoin="round"/>
<path d="M30.5 15.5C30.8978 15.1022 31.4374 14.8787 32 14.8787C32.5626 14.8787 33.1022 15.1022 33.5 15.5C33.8978 15.8978 34.1213 16.4374 34.1213 17C34.1213 17.5626 33.8978 18.1022 33.5 18.5L24 28L20 29L21 25L30.5 15.5Z" stroke="white" stroke-width="2" stroke-linecap="round" stroke-linejoin="round"/>
</svg>
