<svg width="72" height="73" viewBox="0 0 72 73" fill="none" xmlns="http://www.w3.org/2000/svg">
<circle cx="36" cy="36.5" r="36" fill="#1B3F58"/>
<mask id="mask0_51_1995" style="mask-type:alpha" maskUnits="userSpaceOnUse" x="20" y="20" width="32" height="33">
<rect x="20" y="20.5" width="32" height="32" fill="#D9D9D9"/>
</mask>
<g mask="url(#mask0_51_1995)">
<path d="M35.8334 47.1667C35.9223 47.1667 36.0112 47.1444 36.1001 47.1C36.189 47.0556 36.2556 47.0111 36.3001 46.9667L47.2334 36.0333C47.5001 35.7667 47.6945 35.4667 47.8167 35.1333C47.939 34.8 48.0001 34.4667 48.0001 34.1333C48.0001 33.7778 47.939 33.4389 47.8167 33.1167C47.6945 32.7944 47.5001 32.5111 47.2334 32.2667L41.5667 26.6C41.3223 26.3333 41.039 26.1389 40.7167 26.0167C40.3945 25.8944 40.0556 25.8333 39.7001 25.8333C39.3667 25.8333 39.0334 25.8944 38.7001 26.0167C38.3667 26.1389 38.0667 26.3333 37.8001 26.6L37.4334 26.9667L39.9001 29.4667C40.2334 29.7778 40.4778 30.1333 40.6334 30.5333C40.789 30.9333 40.8667 31.3556 40.8667 31.8C40.8667 32.7333 40.5501 33.5167 39.9167 34.15C39.2834 34.7833 38.5001 35.1 37.5667 35.1C37.1223 35.1 36.6945 35.0222 36.2834 34.8667C35.8723 34.7111 35.5112 34.4778 35.2001 34.1667L32.7001 31.7L26.8667 37.5333C26.8001 37.6 26.7501 37.6722 26.7167 37.75C26.6834 37.8278 26.6667 37.9111 26.6667 38C26.6667 38.1778 26.7334 38.3389 26.8667 38.4833C27.0001 38.6278 27.1556 38.7 27.3334 38.7C27.4223 38.7 27.5112 38.6778 27.6001 38.6333C27.689 38.5889 27.7556 38.5444 27.8001 38.5L32.3334 33.9667L34.2001 35.8333L29.7001 40.3667C29.6334 40.4333 29.5834 40.5056 29.5501 40.5833C29.5167 40.6611 29.5001 40.7444 29.5001 40.8333C29.5001 41.0111 29.5667 41.1667 29.7001 41.3C29.8334 41.4333 29.989 41.5 30.1667 41.5C30.2556 41.5 30.3445 41.4778 30.4334 41.4333C30.5223 41.3889 30.589 41.3444 30.6334 41.3L35.1667 36.8L37.0334 38.6667L32.5334 43.2C32.4667 43.2444 32.4167 43.3111 32.3834 43.4C32.3501 43.4889 32.3334 43.5778 32.3334 43.6667C32.3334 43.8444 32.4001 44 32.5334 44.1333C32.6667 44.2667 32.8223 44.3333 33.0001 44.3333C33.089 44.3333 33.1723 44.3167 33.2501 44.2833C33.3278 44.25 33.4001 44.2 33.4667 44.1333L38.0001 39.6333L39.8667 41.5L35.3334 46.0333C35.2667 46.1 35.2167 46.1722 35.1834 46.25C35.1501 46.3278 35.1334 46.4111 35.1334 46.5C35.1334 46.6778 35.2056 46.8333 35.3501 46.9667C35.4945 47.1 35.6556 47.1667 35.8334 47.1667ZM35.8001 49.8333C34.9778 49.8333 34.2501 49.5611 33.6167 49.0167C32.9834 48.4722 32.6112 47.7889 32.5001 46.9667C31.7445 46.8556 31.1112 46.5444 30.6001 46.0333C30.089 45.5222 29.7778 44.8889 29.6667 44.1333C28.9112 44.0222 28.2834 43.7056 27.7834 43.1833C27.2834 42.6611 26.9778 42.0333 26.8667 41.3C26.0223 41.1889 25.3334 40.8222 24.8001 40.2C24.2667 39.5778 24.0001 38.8444 24.0001 38C24.0001 37.5556 24.0834 37.1278 24.2501 36.7167C24.4167 36.3056 24.6556 35.9444 24.9667 35.6333L32.7001 27.9333L37.0667 32.3C37.1112 32.3667 37.1778 32.4167 37.2667 32.45C37.3556 32.4833 37.4445 32.5 37.5334 32.5C37.7334 32.5 37.9001 32.4389 38.0334 32.3167C38.1667 32.1944 38.2334 32.0333 38.2334 31.8333C38.2334 31.7444 38.2167 31.6556 38.1834 31.5667C38.1501 31.4778 38.1001 31.4111 38.0334 31.3667L33.2667 26.6C33.0223 26.3333 32.739 26.1389 32.4167 26.0167C32.0945 25.8944 31.7556 25.8333 31.4001 25.8333C31.0667 25.8333 30.7334 25.8944 30.4001 26.0167C30.0667 26.1389 29.7667 26.3333 29.5001 26.6L24.8001 31.3333C24.6001 31.5333 24.4334 31.7667 24.3001 32.0333C24.1667 32.3 24.0778 32.5667 24.0334 32.8333C23.989 33.1 23.989 33.3722 24.0334 33.65C24.0778 33.9278 24.1667 34.1889 24.3001 34.4333L22.3667 36.3667C21.989 35.8556 21.7112 35.2944 21.5334 34.6833C21.3556 34.0722 21.289 33.4556 21.3334 32.8333C21.3778 32.2111 21.5334 31.6056 21.8001 31.0167C22.0667 30.4278 22.4334 29.9 22.9001 29.4333L27.6001 24.7333C28.1334 24.2222 28.7278 23.8333 29.3834 23.5667C30.039 23.3 30.7112 23.1667 31.4001 23.1667C32.089 23.1667 32.7612 23.3 33.4167 23.5667C34.0723 23.8333 34.6556 24.2222 35.1667 24.7333L35.5334 25.1L35.9001 24.7333C36.4334 24.2222 37.0278 23.8333 37.6834 23.5667C38.339 23.3 39.0112 23.1667 39.7001 23.1667C40.389 23.1667 41.0612 23.3 41.7167 23.5667C42.3723 23.8333 42.9556 24.2222 43.4667 24.7333L49.1001 30.3667C49.6112 30.8778 50.0001 31.4667 50.2667 32.1333C50.5334 32.8 50.6667 33.4778 50.6667 34.1667C50.6667 34.8556 50.5334 35.5278 50.2667 36.1833C50.0001 36.8389 49.6112 37.4222 49.1001 37.9333L38.1667 48.8333C37.8556 49.1444 37.4945 49.3889 37.0834 49.5667C36.6723 49.7444 36.2445 49.8333 35.8001 49.8333Z" fill="white"/>
</g>
</svg>
