<svg width="105" height="48" viewBox="0 0 105 48" fill="none" xmlns="http://www.w3.org/2000/svg">
<g clip-path="url(#clip0_51_2106)">
<path d="M51.0026 13.4746L36.9875 36.9889L22.9724 13.4746H29.139L36.9875 27.9903L45.6768 13.4746H51.0026Z" fill="#F09021"/>
<path d="M33.788 42.0373L30.7914 47.9998L10.5322 13.4746H16.8181L33.788 42.0373Z" fill="#2569B3"/>
<path d="M1.41854 8.12786C0.472332 7.22305 0 6.09396 0 4.7437C0 3.39344 0.472332 2.2659 1.41854 1.35954C2.36476 0.45318 3.55256 0 4.98194 0C6.41133 0 7.59758 0.45318 8.54379 1.35954C9.49 2.2659 9.96234 3.39499 9.96234 4.7437C9.96234 6.09241 9.48845 7.22305 8.54379 8.12786C7.59758 9.03422 6.40978 9.4874 4.98194 9.4874C3.55411 9.4874 2.36476 9.03422 1.42009 8.12786H1.41854ZM8.97741 13.3062V45.3567H0.868781V13.3062H8.97896H8.97741Z" fill="white"/>
<path d="M49.8426 20.5959C51.1358 18.0887 52.8935 16.1615 55.1142 14.8112C57.3349 13.461 59.8158 12.7866 62.5569 12.7866C64.9511 12.7866 67.0464 13.2692 68.8412 14.2328C70.6361 15.1979 72.0748 16.4121 73.1573 17.8768V13.3063H81.3247V45.3568H73.1573V40.6704C72.115 42.1753 70.6748 43.4188 68.8412 44.4025C67.0061 45.3862 64.8922 45.8781 62.4981 45.8781C59.7941 45.8781 57.3334 45.1836 55.1126 43.7947C52.8919 42.4057 51.1342 40.4492 49.8411 37.9234C48.5464 35.3977 47.9007 32.4946 47.9007 29.2171C47.9007 25.9397 48.5464 23.1046 49.8411 20.5974L49.8426 20.5959ZM71.9989 24.2693C71.2261 22.8618 70.1839 21.7822 68.8707 21.0289C67.5574 20.2772 66.1482 19.9014 64.6429 19.9014C63.1376 19.9014 61.747 20.268 60.4724 21.0011C59.1979 21.7342 58.165 22.8045 57.3736 24.212C56.5823 25.6211 56.1858 27.2884 56.1858 29.2156C56.1858 31.1427 56.5807 32.8317 57.3736 34.2779C58.165 35.724 59.2072 36.833 60.5019 37.6048C61.795 38.3766 63.1748 38.7617 64.6429 38.7617C66.111 38.7617 67.5574 38.3859 68.8707 37.6342C70.1824 36.8825 71.2261 35.8029 71.9989 34.3939C72.7717 32.9864 73.1573 31.299 73.1573 29.3316C73.1573 27.3642 72.7701 25.6783 71.9989 24.2693Z" fill="white"/>
<path d="M95.0534 2.5459V45.3568H86.9432V2.5459H95.0534Z" fill="white"/>
<path d="M104.471 11.1067C104.471 12.4337 103.428 13.4746 102.072 13.4746C100.715 13.4746 99.659 12.4337 99.659 11.1067C99.659 9.7796 100.731 8.76807 102.072 8.76807C103.413 8.76807 104.471 9.80899 104.471 11.1067ZM100.258 11.1067C100.258 12.1476 101.03 12.9751 102.086 12.9751C103.142 12.9751 103.87 12.1476 103.87 11.1206C103.87 10.0936 103.112 9.23826 102.07 9.23826C101.028 9.23826 100.257 10.0797 100.257 11.1067H100.258ZM101.7 12.3332H101.158V9.99459C101.372 9.95129 101.672 9.92345 102.058 9.92345C102.501 9.92345 102.701 9.99459 102.872 10.0951C103.001 10.1941 103.1 10.3797 103.1 10.6086C103.1 10.8654 102.9 11.0649 102.615 11.15V11.1778C102.843 11.2629 102.972 11.4346 103.044 11.7485C103.116 12.1043 103.159 12.2481 103.216 12.3332H102.631C102.56 12.2481 102.516 12.0331 102.445 11.7625C102.402 11.5057 102.259 11.3913 101.96 11.3913H101.703V12.3332H101.7ZM101.714 11.0077H101.971C102.272 11.0077 102.515 10.9071 102.515 10.6659C102.515 10.4524 102.357 10.3086 102.014 10.3086C101.872 10.3086 101.771 10.3225 101.714 10.338V11.0077Z" fill="#2569B3"/>
</g>
<defs>
<clipPath id="clip0_51_2106">
<rect width="104.471" height="48" fill="white"/>
</clipPath>
</defs>
</svg>
