<svg width="64" height="64" viewBox="0 0 64 64" fill="none" xmlns="http://www.w3.org/2000/svg">
<circle cx="32" cy="32" r="32" fill="#1B3F58"/>
<mask id="mask0_51_2024" style="mask-type:alpha" maskUnits="userSpaceOnUse" x="16" y="16" width="32" height="32">
<rect x="16" y="16" width="32" height="32" fill="#D9D9D9"/>
</mask>
<g mask="url(#mask0_51_2024)">
<path d="M33.3333 39.3333L38 34.6666C38.2444 34.4222 38.4388 34.1333 38.5833 33.8C38.7277 33.4666 38.8 33.1111 38.8 32.7333C38.8 31.9777 38.5333 31.3333 38 30.8C37.4666 30.2666 36.8222 30 36.0666 30C35.6444 30 35.2277 30.1222 34.8166 30.3666C34.4055 30.6111 33.9111 31.0222 33.3333 31.6C32.6666 30.9777 32.1444 30.5555 31.7666 30.3333C31.3888 30.1111 31 30 30.6 30C29.8444 30 29.2 30.2666 28.6666 30.8C28.1333 31.3333 27.8666 31.9777 27.8666 32.7333C27.8666 33.1111 27.9388 33.4666 28.0833 33.8C28.2277 34.1333 28.4222 34.4222 28.6666 34.6666L33.3333 39.3333ZM35 44.5333C34.4888 45.0444 33.8555 45.3 33.1 45.3C32.3444 45.3 31.7111 45.0444 31.2 44.5333L19.4666 32.8C19.2222 32.5555 19.0277 32.2666 18.8833 31.9333C18.7388 31.6 18.6666 31.2444 18.6666 30.8666V21.3333C18.6666 20.6 18.9277 19.9722 19.45 19.45C19.9722 18.9277 20.6 18.6666 21.3333 18.6666H30.8666C31.2444 18.6666 31.6 18.7388 31.9333 18.8833C32.2666 19.0277 32.5555 19.2222 32.8 19.4666L44.5333 31.2333C45.0444 31.7444 45.3 32.3722 45.3 33.1166C45.3 33.8611 45.0444 34.4888 44.5333 35L35 44.5333ZM33.1 42.6666L42.6333 33.1333L30.8666 21.3333H21.3333V30.8666L33.1 42.6666ZM24.6666 26.6666C25.2222 26.6666 25.6944 26.4722 26.0833 26.0833C26.4722 25.6944 26.6666 25.2222 26.6666 24.6666C26.6666 24.1111 26.4722 23.6388 26.0833 23.25C25.6944 22.8611 25.2222 22.6666 24.6666 22.6666C24.1111 22.6666 23.6388 22.8611 23.25 23.25C22.8611 23.6388 22.6666 24.1111 22.6666 24.6666C22.6666 25.2222 22.8611 25.6944 23.25 26.0833C23.6388 26.4722 24.1111 26.6666 24.6666 26.6666Z" fill="white"/>
</g>
</svg>
