<svg width="460" height="81" viewBox="0 0 460 81" fill="none" xmlns="http://www.w3.org/2000/svg">
<g clip-path="url(#clip0_51_2260)">
<path d="M137.764 16.1885V55.5203H129.923V29.9361L119.451 55.5203H113.518L102.991 29.9361V55.5203H95.1499V16.1885H104.053L116.482 45.433L128.912 16.1885H137.76H137.764Z" fill="white"/>
<path d="M146.024 19.2614C145.11 18.3804 144.653 17.2823 144.653 15.9628C144.653 14.6434 145.11 13.5496 146.024 12.6643C146.937 11.7832 148.088 11.3406 149.466 11.3406C150.845 11.3406 151.995 11.7832 152.909 12.6643C153.822 13.5496 154.279 14.6477 154.279 15.9628C154.279 17.278 153.822 18.3761 152.909 19.2614C151.995 20.1424 150.845 20.5851 149.466 20.5851C148.088 20.5851 146.937 20.1424 146.024 19.2614ZM153.332 24.305V55.5202H145.491V24.305H153.332Z" fill="white"/>
<path d="M178.191 55.5201L171.81 45.8287L166.155 55.5201H157.756L167.889 39.8572L157.641 24.3049H166.489L172.816 33.941L178.526 24.3049H186.925L176.732 39.8572L187.035 55.5201H178.187H178.191Z" fill="white"/>
<path d="M219.905 42.2791H197.227C197.413 44.5349 198.196 46.3012 199.579 47.5739C200.958 48.8507 202.658 49.4892 204.675 49.4892C207.585 49.4892 209.657 48.2293 210.892 45.7139H219.346C218.45 48.7188 216.733 51.1874 214.195 53.124C211.658 55.0606 208.541 56.0267 204.844 56.0267C201.858 56.0267 199.181 55.3585 196.809 54.0263C194.436 52.6941 192.592 50.8043 191.264 48.3655C189.94 45.9224 189.276 43.1048 189.276 39.9126C189.276 36.7205 189.928 33.8475 191.235 31.4045C192.541 28.9614 194.368 27.0844 196.72 25.7692C199.071 24.454 201.778 23.7986 204.84 23.7986C207.902 23.7986 210.431 24.437 212.761 25.7139C215.096 26.9908 216.906 28.8039 218.192 31.1533C219.478 33.5028 220.125 36.197 220.125 39.2402C220.125 40.3681 220.048 41.381 219.9 42.2834L219.905 42.2791ZM212.009 36.9844C211.971 34.9541 211.243 33.3325 209.826 32.111C208.405 30.8895 206.671 30.2808 204.62 30.2808C202.679 30.2808 201.046 30.8724 199.723 32.0557C198.399 33.2389 197.587 34.8818 197.287 36.9844H212.013H212.009Z" fill="white"/>
<path d="M225.699 31.4045C226.951 28.9614 228.655 27.0844 230.82 25.7692C232.986 24.4541 235.392 23.7986 238.044 23.7986C240.061 23.7986 241.981 24.2413 243.813 25.1223C245.64 26.0033 247.099 27.1781 248.182 28.6422V13.822H256.133V55.5203H248.182V50.898C247.209 52.4387 245.847 53.6773 244.096 54.6179C242.341 55.5586 240.307 56.0267 237.993 56.0267C235.38 56.0267 232.99 55.35 230.825 53.9965C228.659 52.643 226.951 50.7363 225.703 48.2762C224.451 45.8161 223.825 42.9899 223.825 39.7978C223.825 36.6056 224.451 33.8433 225.703 31.4002L225.699 31.4045ZM247.116 34.984C246.367 33.6135 245.361 32.5622 244.092 31.8301C242.823 31.098 241.461 30.732 240.002 30.732C238.543 30.732 237.202 31.0895 235.972 31.8046C234.741 32.5196 233.743 33.5624 232.977 34.9329C232.212 36.3034 231.831 37.9293 231.831 39.8063C231.831 41.6833 232.212 43.3262 232.977 44.735C233.743 46.1438 234.749 47.2249 236.001 47.974C237.253 48.7273 238.585 49.1019 240.006 49.1019C241.427 49.1019 242.823 48.7358 244.096 48.0038C245.365 47.2717 246.371 46.2204 247.12 44.8499C247.864 43.4794 248.241 41.8365 248.241 39.9212C248.241 38.0059 247.869 36.363 247.12 34.9925L247.116 34.984Z" fill="white"/>
<path d="M290.394 16.1885V22.5558H279.981V55.5203H272.144V22.5558H261.732V16.1885H290.398H290.394Z" fill="white"/>
<path d="M319.119 42.2791H296.442C296.628 44.5349 297.41 46.3012 298.793 47.5739C300.172 48.8507 301.872 49.4892 303.889 49.4892C306.799 49.4892 308.872 48.2293 310.106 45.7139H318.561C317.664 48.7188 315.947 51.1874 313.41 53.124C310.872 55.0606 307.755 56.0267 304.059 56.0267C301.073 56.0267 298.396 55.3585 296.023 54.0263C293.65 52.6941 291.802 50.8043 290.478 48.3655C289.155 45.9224 288.491 43.1048 288.491 39.9126C288.491 36.7205 289.142 33.8475 290.449 31.4045C291.756 28.9614 293.583 27.0844 295.934 25.7692C298.286 24.454 300.992 23.7986 304.054 23.7986C307.116 23.7986 309.645 24.437 311.976 25.7139C314.306 26.9908 316.12 28.8039 317.406 31.1533C318.692 33.5028 319.339 36.197 319.339 39.2402C319.339 40.3681 319.263 41.381 319.115 42.2834L319.119 42.2791ZM311.223 36.9844C311.185 34.9541 310.457 33.3325 309.041 32.111C307.624 30.8895 305.886 30.2808 303.834 30.2808C301.893 30.2808 300.261 30.8724 298.937 32.0557C297.613 33.2389 296.801 34.8818 296.501 36.9844H311.227H311.223Z" fill="white"/>
<path d="M350.081 27.3738C352.357 29.7232 353.499 33.0005 353.499 37.2057V55.5202H345.662V38.2782C345.662 35.7969 345.044 33.8943 343.814 32.5579C342.583 31.2257 340.904 30.5575 338.772 30.5575C336.641 30.5575 334.898 31.2257 333.651 32.5579C332.399 33.8901 331.777 35.7969 331.777 38.2782V55.5202H323.936V24.3051H331.777V28.1952C332.822 26.8418 334.158 25.782 335.782 25.0116C337.406 24.2412 339.187 23.8582 341.128 23.8582C344.824 23.8582 347.81 25.0329 350.086 27.3781L350.081 27.3738Z" fill="white"/>
<path d="M387.988 24.305V55.5202H380.092V51.5747C379.086 52.9281 377.77 53.9879 376.146 54.7583C374.522 55.5287 372.759 55.9118 370.856 55.9118C368.428 55.9118 366.284 55.3968 364.414 54.3625C362.549 53.3282 361.082 51.8088 360.02 49.7998C358.954 47.7909 358.426 45.3946 358.426 42.6153V24.3008H366.267V41.4874C366.267 43.9688 366.884 45.8756 368.115 47.2078C369.346 48.54 371.025 49.2082 373.156 49.2082C375.288 49.2082 377.018 48.54 378.253 47.2078C379.483 45.8756 380.101 43.9688 380.101 41.4874V24.3008H387.997L387.988 24.305Z" fill="white"/>
<path d="M407.502 25.2626C409.126 24.3219 410.983 23.8538 413.072 23.8538V32.1364H411C408.534 32.1364 406.677 32.7195 405.43 33.8814C404.178 35.0476 403.556 37.0736 403.556 39.9678V55.5201H395.715V24.3049H403.556V29.1528C404.563 27.5013 405.878 26.2032 407.502 25.2668V25.2626Z" fill="white"/>
<path d="M446.948 42.2791H424.271C424.457 44.5349 425.24 46.3012 426.623 47.5739C428.001 48.8507 429.701 49.4892 431.719 49.4892C434.629 49.4892 436.701 48.2293 437.936 45.7139H446.39C445.494 48.7188 443.776 51.1874 441.239 53.124C438.701 55.0606 435.584 56.0267 431.888 56.0267C428.902 56.0267 426.225 55.3585 423.852 54.0263C421.48 52.6941 419.632 50.8043 418.308 48.3655C416.984 45.9224 416.32 43.1048 416.32 39.9126C416.32 36.7205 416.971 33.8475 418.278 31.4045C419.585 28.9614 421.412 27.0844 423.764 25.7692C426.115 24.454 428.822 23.7986 431.884 23.7986C434.946 23.7986 437.475 24.437 439.805 25.7139C442.135 26.9908 443.95 28.8039 445.236 31.1533C446.521 33.5028 447.168 36.197 447.168 39.2402C447.168 40.3681 447.092 41.381 446.944 42.2834L446.948 42.2791ZM439.052 36.9844C439.014 34.9541 438.287 33.3325 436.87 32.111C435.453 30.8895 433.715 30.2808 431.664 30.2808C429.723 30.2808 428.09 30.8724 426.766 32.0557C425.443 33.2389 424.631 34.8818 424.33 36.9844H439.057H439.052Z" fill="white"/>
<path d="M34.4854 33.9412V25.0031L0 0.5V58.1165L5.86599 62.2876V13.49L34.4854 33.9412Z" fill="white"/>
<path d="M11.6262 28.1484V66.3778L16.3841 69.9233V39.9978L24.2463 45.8033V75.7884L30.5691 80.5V42.1301L11.6262 28.1484Z" fill="#339C54"/>
<path d="M34.4854 33.9412V25.0031L68.975 0.5V58.1165L63.109 62.2876V13.49L34.4854 33.9412Z" fill="#2569B3"/>
<path d="M56.9597 28.1484V66.3778L52.1976 69.9233V39.9978L44.3354 45.8033V75.7884L38.0168 80.5V42.1301L56.9597 28.1484Z" fill="#F09021"/>
<path d="M460 19.9977C460 23.0451 457.623 25.4371 454.527 25.4371C451.431 25.4371 449.021 23.0451 449.021 19.9977C449.021 16.9502 451.465 14.6221 454.527 14.6221C457.589 14.6221 460 17.0141 460 19.9977ZM450.391 19.9977C450.391 22.3897 452.15 24.2922 454.561 24.2922C456.972 24.2922 458.634 22.3897 458.634 20.0317C458.634 17.6738 456.908 15.7032 454.531 15.7032C452.155 15.7032 450.395 17.6355 450.395 19.9977H450.391ZM453.681 22.8153H452.442V17.4397C452.929 17.3418 453.614 17.2737 454.493 17.2737C455.504 17.2737 455.957 17.4397 456.35 17.6653C456.642 17.8951 456.87 18.3207 456.87 18.8442C456.87 19.4359 456.414 19.8913 455.762 20.0913V20.1552C456.282 20.3509 456.578 20.7468 456.739 21.4661C456.904 22.2875 457.001 22.6153 457.128 22.811H455.792C455.627 22.6153 455.53 22.1215 455.369 21.5001C455.272 20.9085 454.946 20.6489 454.261 20.6489H453.673V22.811L453.681 22.8153ZM453.715 19.7678H454.299C454.984 19.7678 455.538 19.538 455.538 18.9804C455.538 18.4867 455.179 18.159 454.396 18.159C454.071 18.159 453.842 18.193 453.711 18.2271V19.7678H453.715Z" fill="#2569B3"/>
</g>
<defs>
<clipPath id="clip0_51_2260">
<rect width="460" height="80" fill="white" transform="translate(0 0.5)"/>
</clipPath>
</defs>
</svg>
