<svg width="64" height="64" viewBox="0 0 64 64" fill="none" xmlns="http://www.w3.org/2000/svg">
<circle cx="32" cy="32" r="32" fill="#1B3F58"/>
<mask id="mask0_51_2061" style="mask-type:alpha" maskUnits="userSpaceOnUse" x="16" y="16" width="32" height="32">
<rect x="16" y="16" width="32" height="32" fill="#D9D9D9"/>
</mask>
<g mask="url(#mask0_51_2061)">
<path d="M19.5 40.2333L17.3334 38.6666L24 28L28 32.6666L33.3334 24L36.9667 29.4333C36.4556 29.4555 35.9723 29.5166 35.5167 29.6166C35.0612 29.7166 34.6112 29.8555 34.1667 30.0333L33.4334 28.9333L28.3667 37.1666L24.3334 32.4666L19.5 40.2333ZM44.7667 46.6666L40.6 42.5C40.1556 42.8111 39.6612 43.0444 39.1167 43.2C38.5723 43.3555 38.0112 43.4333 37.4334 43.4333C35.7667 43.4333 34.35 42.85 33.1834 41.6833C32.0167 40.5166 31.4334 39.1 31.4334 37.4333C31.4334 35.7666 32.0167 34.35 33.1834 33.1833C34.35 32.0166 35.7667 31.4333 37.4334 31.4333C39.1 31.4333 40.5167 32.0166 41.6834 33.1833C42.85 34.35 43.4334 35.7666 43.4334 37.4333C43.4334 38.0111 43.3556 38.5722 43.2 39.1166C43.0445 39.6611 42.8112 40.1666 42.5 40.6333L46.6667 44.7666L44.7667 46.6666ZM37.4334 40.7666C38.3667 40.7666 39.1556 40.4444 39.8 39.8C40.4445 39.1555 40.7667 38.3666 40.7667 37.4333C40.7667 36.5 40.4445 35.7111 39.8 35.0666C39.1556 34.4222 38.3667 34.1 37.4334 34.1C36.5 34.1 35.7112 34.4222 35.0667 35.0666C34.4223 35.7111 34.1 36.5 34.1 37.4333C34.1 38.3666 34.4223 39.1555 35.0667 39.8C35.7112 40.4444 36.5 40.7666 37.4334 40.7666ZM40.4 30.1C39.9778 29.9222 39.5389 29.7777 39.0834 29.6666C38.6278 29.5555 38.1556 29.4888 37.6667 29.4666L44.5 18.6666L46.6667 20.2333L40.4 30.1Z" fill="white"/>
</g>
</svg>
