<svg width="64" height="64" viewBox="0 0 64 64" fill="none" xmlns="http://www.w3.org/2000/svg">
<circle cx="32" cy="32" r="32" fill="#1B3F58"/>
<mask id="mask0_51_2015" style="mask-type:alpha" maskUnits="userSpaceOnUse" x="16" y="16" width="32" height="32">
<rect x="16" y="16" width="32" height="32" fill="#D9D9D9"/>
</mask>
<g mask="url(#mask0_51_2015)">
<path d="M25.3334 44C23.4889 44 21.9167 43.35 20.6167 42.05C19.3167 40.75 18.6667 39.1777 18.6667 37.3333C18.6667 35.7111 19.1722 34.2944 20.1834 33.0833C21.1945 31.8722 22.4667 31.1111 24 30.8V33.5666C23.2222 33.8333 22.5834 34.3111 22.0834 35C21.5834 35.6888 21.3334 36.4666 21.3334 37.3333C21.3334 38.4444 21.7222 39.3888 22.5 40.1666C23.2778 40.9444 24.2222 41.3333 25.3334 41.3333C26.4445 41.3333 27.3889 40.9444 28.1667 40.1666C28.9445 39.3888 29.3334 38.4444 29.3334 37.3333V36H37.1667C37.3445 35.8 37.5611 35.6388 37.8167 35.5166C38.0722 35.3944 38.3556 35.3333 38.6667 35.3333C39.2222 35.3333 39.6945 35.5277 40.0834 35.9166C40.4722 36.3055 40.6667 36.7777 40.6667 37.3333C40.6667 37.8888 40.4722 38.3611 40.0834 38.75C39.6945 39.1388 39.2222 39.3333 38.6667 39.3333C38.3556 39.3333 38.0722 39.2722 37.8167 39.15C37.5611 39.0277 37.3445 38.8666 37.1667 38.6666H31.8667C31.5556 40.2 30.7945 41.4722 29.5834 42.4833C28.3722 43.4944 26.9556 44 25.3334 44ZM38.6667 44C37.4222 44 36.2945 43.6944 35.2834 43.0833C34.2722 42.4722 33.4778 41.6666 32.9 40.6666H36.4667C36.7778 40.8888 37.1222 41.0555 37.5 41.1666C37.8778 41.2777 38.2667 41.3333 38.6667 41.3333C39.7778 41.3333 40.7222 40.9444 41.5 40.1666C42.2778 39.3888 42.6667 38.4444 42.6667 37.3333C42.6667 36.2222 42.2778 35.2777 41.5 34.5C40.7222 33.7222 39.7778 33.3333 38.6667 33.3333C38.2222 33.3333 37.8111 33.3944 37.4334 33.5166C37.0556 33.6388 36.7 33.8222 36.3667 34.0666L32.3 27.3C31.8334 27.2111 31.4445 26.9888 31.1334 26.6333C30.8222 26.2777 30.6667 25.8444 30.6667 25.3333C30.6667 24.7777 30.8611 24.3055 31.25 23.9166C31.6389 23.5277 32.1111 23.3333 32.6667 23.3333C33.2222 23.3333 33.6945 23.5277 34.0834 23.9166C34.4722 24.3055 34.6667 24.7777 34.6667 25.3333V25.6166C34.6667 25.6944 34.6445 25.7888 34.6 25.9L37.5 30.7666C37.6778 30.7222 37.8667 30.6944 38.0667 30.6833C38.2667 30.6722 38.4667 30.6666 38.6667 30.6666C40.5111 30.6666 42.0834 31.3166 43.3834 32.6166C44.6834 33.9166 45.3334 35.4888 45.3334 37.3333C45.3334 39.1777 44.6834 40.75 43.3834 42.05C42.0834 43.35 40.5111 44 38.6667 44ZM25.3334 39.3333C24.7778 39.3333 24.3056 39.1388 23.9167 38.75C23.5278 38.3611 23.3334 37.8888 23.3334 37.3333C23.3334 36.8444 23.4889 36.4222 23.8 36.0666C24.1111 35.7111 24.4889 35.4777 24.9334 35.3666L28.0667 30.1666C27.4222 29.5666 26.9167 28.85 26.55 28.0166C26.1834 27.1833 26 26.2888 26 25.3333C26 23.4888 26.65 21.9166 27.95 20.6166C29.25 19.3166 30.8222 18.6666 32.6667 18.6666C34.5111 18.6666 36.0834 19.3166 37.3834 20.6166C38.6834 21.9166 39.3334 23.4888 39.3334 25.3333H36.6667C36.6667 24.2222 36.2778 23.2777 35.5 22.5C34.7222 21.7222 33.7778 21.3333 32.6667 21.3333C31.5556 21.3333 30.6111 21.7222 29.8334 22.5C29.0556 23.2777 28.6667 24.2222 28.6667 25.3333C28.6667 26.2888 28.9556 27.1277 29.5334 27.85C30.1111 28.5722 30.8445 29.0333 31.7334 29.2333L27.2334 36.7333C27.2778 36.8444 27.3056 36.9444 27.3167 37.0333C27.3278 37.1222 27.3334 37.2222 27.3334 37.3333C27.3334 37.8888 27.1389 38.3611 26.75 38.75C26.3611 39.1388 25.8889 39.3333 25.3334 39.3333Z" fill="white"/>
</g>
</svg>
